<svg width="12" height="14" viewBox="0 0 12 14" fill="none" xmlns="http://www.w3.org/2000/svg">
<path d="M1 0.5H11V12H9.5V13.5H1V0.5Z" stroke="#416991" stroke-linejoin="round"/>
<path d="M3 11H5" stroke="#416991"/>
<path d="M3 8.5H8" stroke="#416991"/>
<path d="M11 12L11.3536 12.3536C11.4966 12.2106 11.5393 11.9955 11.4619 11.8087C11.3845 11.6218 11.2022 11.5 11 11.5V12ZM9.5 13.5H9C9 13.7022 9.12182 13.8845 9.30866 13.9619C9.4955 14.0393 9.71055 13.9966 9.85355 13.8536L9.5 13.5ZM9.5 12V11.5H9V12H9.5ZM10 13.5V12H9V13.5H10ZM9.5 12.5H11V11.5H9.5V12.5ZM10.6464 11.6464L9.64645 12.6464L10.3536 13.3536L11.3536 12.3536L10.6464 11.6464ZM9.64645 12.6464L9.14645 13.1464L9.85355 13.8536L10.3536 13.3536L9.64645 12.6464Z" fill="#416991"/>
<path d="M3.5 3H8.5V6H3.5V3Z" stroke="#416991"/>
</svg>
