<svg width="12" height="18" viewBox="0 0 12 18" fill="none" xmlns="http://www.w3.org/2000/svg">
<path d="M3 13H9V15C9 15.5523 8.55228 16 8 16H4C3.44772 16 3 15.5523 3 15V13Z" stroke="#416991" stroke-linejoin="round"/>
<path d="M4 16H8V16C8 16.5523 7.55228 17 7 17H5C4.44772 17 4 16.5523 4 16V16Z" stroke="#416991" stroke-linejoin="round"/>
<path d="M9 12.4981C9 10.9256 9.89718 9.50534 10.5505 8.07495C10.8391 7.4429 11 6.74024 11 6C11 3.23858 8.76142 1 6 1C3.23858 1 1 3.23858 1 6C1 6.74024 1.16086 7.4429 1.44953 8.07495C2.10282 9.50534 3 10.9256 3 12.4981V13H9V12.4981Z" stroke="#416991" stroke-linejoin="round"/>
<path d="M6 13L6 8" stroke="#416991" stroke-linejoin="round"/>
<path d="M4 8H8" stroke="#416991" stroke-linejoin="round"/>
</svg>
