<svg width="16" height="15" viewBox="0 0 16 15" fill="none" xmlns="http://www.w3.org/2000/svg">
<path d="M2.75 6.1875L2.39645 5.83395L2.25 5.98039V6.1875H2.75ZM8 0.9375L8.35355 0.583947L8 0.230393L7.64645 0.583947L8 0.9375ZM6.25 14.0625V14.5625H6.75V14.0625H6.25ZM6.25 10.125V9.625H5.75V10.125H6.25ZM9.75 10.125H10.25V9.625H9.75V10.125ZM9.75 14.0625H9.25V14.5625H9.75V14.0625ZM13.25 6.1875H13.75V5.98039L13.6036 5.83395L13.25 6.1875ZM3.10355 6.54105L8.35355 1.29105L7.64645 0.583947L2.39645 5.83395L3.10355 6.54105ZM3.25 13.0625V6.1875H2.25V13.0625H3.25ZM3.75 13.5625C3.47386 13.5625 3.25 13.3386 3.25 13.0625H2.25C2.25 13.8909 2.92157 14.5625 3.75 14.5625V13.5625ZM6.25 13.5625H3.75V14.5625H6.25V13.5625ZM6.75 14.0625V10.125H5.75V14.0625H6.75ZM6.25 10.625H9.75V9.625H6.25V10.625ZM9.25 10.125V14.0625H10.25V10.125H9.25ZM12.25 13.5625H9.75V14.5625H12.25V13.5625ZM12.75 13.0625C12.75 13.3386 12.5261 13.5625 12.25 13.5625V14.5625C13.0784 14.5625 13.75 13.8909 13.75 13.0625H12.75ZM12.75 6.1875V13.0625H13.75V6.1875H12.75ZM7.64645 1.29105L12.8964 6.54105L13.6036 5.83395L8.35355 0.583947L7.64645 1.29105Z" fill="#416991"/>
<path d="M1 7.9375L8 0.9375L15 7.9375" stroke="#416991"/>
</svg>
