<svg xmlns="http://www.w3.org/2000/svg" xmlns:xlink="http://www.w3.org/1999/xlink" zoomAndPan="magnify" preserveAspectRatio="xMidYMid meet" version="1.0" viewBox="4.36 132.17 365.93 108.75"><defs><clipPath id="003c5ca7a7"><path d="M 351 214 L 370.285156 214 L 370.285156 240 L 351 240 Z M 351 214 " clip-rule="nonzero"/></clipPath><clipPath id="09d06343e6"><path d="M 88 132.167969 L 113.105469 132.167969 L 113.105469 157 L 88 157 Z M 88 132.167969 " clip-rule="nonzero"/></clipPath><clipPath id="620c013da0"><path d="M 88 160 L 113.105469 160 L 113.105469 185 L 88 185 Z M 88 160 " clip-rule="nonzero"/></clipPath><clipPath id="9d6a687402"><path d="M 88 188 L 113.105469 188 L 113.105469 213 L 88 213 Z M 88 188 " clip-rule="nonzero"/></clipPath><clipPath id="89154a4f5f"><path d="M 88 216 L 113.105469 216 L 113.105469 240.917969 L 88 240.917969 Z M 88 216 " clip-rule="nonzero"/></clipPath><clipPath id="54d676310f"><path d="M 60 216 L 86 216 L 86 240.917969 L 60 240.917969 Z M 60 216 " clip-rule="nonzero"/></clipPath><clipPath id="6290763eef"><path d="M 32 216 L 57 216 L 57 240.917969 L 32 240.917969 Z M 32 216 " clip-rule="nonzero"/></clipPath><clipPath id="87768a436e"><path d="M 4.449219 216 L 29 216 L 29 240.917969 L 4.449219 240.917969 Z M 4.449219 216 " clip-rule="nonzero"/></clipPath></defs><path fill="#000000" d="M 146.316406 232.546875 C 147.871094 232.546875 149.386719 232.1875 150.867188 231.476562 C 152.347656 230.765625 153.84375 229.578125 155.355469 227.898438 L 160.082031 232.390625 C 158.183594 234.851562 156.019531 236.714844 153.578125 237.972656 C 151.148438 239.214844 148.648438 239.839844 146.074219 239.839844 C 143.761719 239.839844 141.589844 239.359375 139.546875 238.417969 C 137.53125 237.484375 135.769531 236.203125 134.265625 234.566406 C 132.738281 232.914062 131.5625 231.039062 130.734375 228.941406 C 129.894531 226.796875 129.46875 224.511719 129.46875 222.09375 C 129.46875 219.664062 129.902344 217.390625 130.78125 215.269531 C 131.632812 213.179688 132.832031 211.3125 134.375 209.664062 C 135.914062 208.035156 137.703125 206.757812 139.75 205.839844 C 141.800781 204.894531 143.992188 204.417969 146.320312 204.417969 C 148.480469 204.417969 150.527344 204.828125 152.46875 205.640625 C 154.421875 206.441406 156.332031 207.777344 158.195312 209.644531 L 153.957031 214.824219 C 152.59375 213.566406 151.304688 212.722656 150.09375 212.289062 C 148.871094 211.855469 147.613281 211.640625 146.320312 211.644531 C 145 211.644531 143.75 211.921875 142.570312 212.464844 C 141.402344 213.007812 140.382812 213.75 139.503906 214.691406 C 138.601562 215.660156 137.914062 216.765625 137.441406 218.003906 C 136.941406 219.320312 136.695312 220.683594 136.707031 222.09375 C 136.707031 223.550781 136.949219 224.90625 137.441406 226.164062 C 137.925781 227.394531 138.613281 228.496094 139.503906 229.476562 C 140.375 230.429688 141.394531 231.179688 142.566406 231.722656 C 143.75 232.273438 145 232.546875 146.320312 232.546875 Z M 146.316406 232.546875 " fill-opacity="1" fill-rule="nonzero"/><path fill="#000000" d="M 163.859375 203.839844 L 170.519531 203.839844 L 170.519531 239.214844 L 163.859375 239.214844 Z M 163.859375 203.839844 " fill-opacity="1" fill-rule="nonzero"/><path fill="#000000" d="M 186.410156 214.535156 C 188.109375 214.535156 189.71875 214.871094 191.226562 215.535156 C 192.734375 216.175781 194.058594 217.078125 195.203125 218.25 C 196.34375 219.421875 197.234375 220.761719 197.867188 222.273438 C 198.542969 223.832031 198.875 225.464844 198.867188 227.164062 C 198.867188 228.914062 198.53125 230.554688 197.867188 232.078125 C 197.226562 233.585938 196.339844 234.929688 195.203125 236.105469 C 194.054688 237.265625 192.726562 238.167969 191.230469 238.816406 C 189.691406 239.476562 188.085938 239.800781 186.414062 239.792969 C 184.660156 239.792969 183.035156 239.464844 181.527344 238.816406 C 180.03125 238.164062 178.707031 237.261719 177.550781 236.105469 C 176.410156 234.929688 175.515625 233.585938 174.867188 232.078125 C 174.210938 230.558594 173.890625 228.917969 173.890625 227.167969 C 173.890625 225.429688 174.210938 223.804688 174.867188 222.273438 C 175.507812 220.765625 176.402344 219.421875 177.550781 218.25 C 178.699219 217.085938 180.023438 216.183594 181.527344 215.539062 C 183.082031 214.855469 184.710938 214.523438 186.410156 214.535156 Z M 186.410156 233.945312 C 187.210938 233.945312 187.953125 233.785156 188.652344 233.457031 C 189.371094 233.125 189.996094 232.667969 190.53125 232.085938 C 191.0625 231.503906 191.46875 230.839844 191.738281 230.097656 C 192.050781 229.316406 192.203125 228.433594 192.203125 227.453125 C 192.203125 226.492188 192.046875 225.597656 191.738281 224.765625 C 191.460938 223.953125 191.046875 223.21875 190.496094 222.5625 C 189.980469 221.941406 189.363281 221.433594 188.652344 221.050781 C 187.953125 220.675781 187.203125 220.492188 186.410156 220.496094 C 185.601562 220.492188 184.839844 220.675781 184.125 221.050781 C 183.410156 221.433594 182.796875 221.9375 182.28125 222.5625 C 181.726562 223.21875 181.304688 223.953125 181.019531 224.765625 C 180.710938 225.632812 180.5625 226.53125 180.574219 227.453125 C 180.574219 228.433594 180.714844 229.316406 181.015625 230.101562 C 181.328125 230.886719 181.75 231.5625 182.28125 232.125 C 182.816406 232.691406 183.425781 233.132812 184.125 233.457031 C 184.835938 233.785156 185.59375 233.945312 186.414062 233.945312 Z M 186.410156 233.945312 " fill-opacity="1" fill-rule="nonzero"/><path fill="#000000" d="M 217.511719 215.222656 L 224.171875 215.222656 L 224.171875 239.214844 L 218.488281 239.214844 L 217.511719 237.371094 C 216.695312 237.945312 215.8125 238.390625 214.867188 238.707031 C 213.894531 239.050781 212.839844 239.214844 211.71875 239.214844 C 210.839844 239.214844 209.851562 239.09375 208.742188 238.835938 C 207.605469 238.5625 206.570312 238.074219 205.636719 237.371094 C 204.667969 236.660156 203.859375 235.679688 203.191406 234.4375 C 202.527344 233.179688 202.195312 231.542969 202.195312 229.542969 L 202.195312 215.226562 L 208.921875 215.226562 L 208.921875 229.300781 C 208.921875 230.042969 209.035156 230.671875 209.273438 231.1875 C 209.507812 231.710938 209.828125 232.125 210.230469 232.433594 C 210.640625 232.734375 211.105469 232.957031 211.628906 233.101562 C 212.144531 233.253906 212.679688 233.324219 213.226562 233.324219 C 213.636719 233.324219 214.09375 233.253906 214.582031 233.101562 C 215.082031 232.957031 215.546875 232.71875 215.980469 232.390625 C 216.433594 232.054688 216.796875 231.640625 217.066406 231.144531 C 217.363281 230.628906 217.511719 230.011719 217.511719 229.300781 Z M 217.511719 215.222656 " fill-opacity="1" fill-rule="nonzero"/><path fill="#000000" d="M 252.726562 203.90625 L 252.726562 239.214844 L 247.023438 239.214844 L 246.070312 237.125 C 245.324219 237.914062 244.296875 238.558594 242.984375 239.0625 C 241.671875 239.554688 240.320312 239.796875 238.917969 239.792969 C 237.199219 239.792969 235.617188 239.464844 234.171875 238.816406 C 232.734375 238.167969 231.484375 237.265625 230.417969 236.105469 C 229.355469 234.910156 228.535156 233.570312 227.953125 232.078125 C 227.359375 230.554688 227.066406 228.917969 227.066406 227.164062 C 227.054688 225.476562 227.351562 223.847656 227.953125 222.273438 C 228.527344 220.78125 229.347656 219.4375 230.417969 218.25 C 231.476562 217.082031 232.726562 216.175781 234.167969 215.535156 C 235.617188 214.871094 237.199219 214.535156 238.921875 214.535156 C 240.429688 214.535156 241.765625 214.714844 242.9375 215.070312 C 244.121094 215.425781 245.164062 216.027344 246.070312 216.871094 L 246.070312 203.90625 Z M 246.070312 227.277344 C 246.070312 226.023438 245.902344 224.960938 245.582031 224.097656 C 245.253906 223.242188 244.804688 222.550781 244.226562 222.03125 C 243.648438 221.492188 242.980469 221.109375 242.230469 220.875 C 241.433594 220.617188 240.621094 220.488281 239.785156 220.496094 C 238.910156 220.496094 238.097656 220.675781 237.34375 221.03125 C 236.597656 221.378906 235.9375 221.855469 235.371094 222.453125 C 234.800781 223.046875 234.359375 223.757812 234.035156 224.585938 C 233.707031 225.414062 233.542969 226.273438 233.546875 227.167969 C 233.546875 228.097656 233.710938 228.980469 234.035156 229.789062 C 234.359375 230.589844 234.804688 231.296875 235.371094 231.902344 C 235.929688 232.496094 236.589844 232.96875 237.34375 233.324219 C 238.097656 233.671875 238.910156 233.835938 239.785156 233.835938 C 241.519531 233.835938 242.984375 233.304688 244.183594 232.234375 C 245.390625 231.15625 246.023438 229.5 246.070312 227.277344 Z M 246.070312 227.277344 " fill-opacity="1" fill-rule="nonzero"/><path fill="#000000" d="M 277.792969 232.589844 L 291.84375 232.589844 L 291.84375 239.214844 L 270.445312 239.214844 L 270.445312 204.90625 L 277.792969 204.90625 Z M 277.792969 232.589844 " fill-opacity="1" fill-rule="nonzero"/><path fill="#000000" d="M 319.566406 215.222656 L 319.566406 239.214844 L 313.820312 239.214844 L 313.152344 236.660156 C 312.21875 237.921875 311.09375 238.761719 309.777344 239.171875 C 308.457031 239.589844 307.101562 239.796875 305.714844 239.796875 C 303.996094 239.796875 302.417969 239.46875 300.988281 238.816406 C 299.566406 238.15625 298.324219 237.253906 297.257812 236.105469 C 296.171875 234.921875 295.34375 233.582031 294.773438 232.078125 C 294.175781 230.558594 293.882812 228.917969 293.882812 227.167969 C 293.871094 225.480469 294.167969 223.847656 294.773438 222.273438 C 295.335938 220.769531 296.164062 219.429688 297.257812 218.25 C 298.320312 217.09375 299.5625 216.191406 300.988281 215.539062 C 302.417969 214.871094 303.996094 214.535156 305.714844 214.535156 C 307.253906 214.535156 308.667969 214.78125 309.957031 215.269531 C 311.234375 215.746094 312.300781 216.515625 313.152344 217.582031 L 313.820312 215.226562 Z M 312.90625 227.277344 C 312.90625 226.019531 312.738281 224.957031 312.398438 224.097656 C 312.054688 223.238281 311.601562 222.550781 311.042969 222.027344 C 310.476562 221.492188 309.816406 221.105469 309.070312 220.871094 C 308.273438 220.613281 307.460938 220.488281 306.625 220.496094 C 305.75 220.496094 304.9375 220.671875 304.183594 221.027344 C 303.429688 221.382812 302.761719 221.863281 302.1875 222.453125 C 301.589844 223.070312 301.136719 223.78125 300.832031 224.585938 C 300.5 225.414062 300.339844 226.273438 300.34375 227.164062 C 300.34375 228.097656 300.503906 228.976562 300.832031 229.789062 C 301.148438 230.578125 301.597656 231.285156 302.1875 231.898438 C 302.761719 232.496094 303.429688 232.96875 304.183594 233.324219 C 304.9375 233.667969 305.75 233.835938 306.625 233.835938 C 308.367188 233.835938 309.84375 233.300781 311.042969 232.234375 C 312.253906 231.15625 312.875 229.5 312.90625 227.277344 Z M 312.90625 227.277344 " fill-opacity="1" fill-rule="nonzero"/><path fill="#000000" d="M 337.722656 214.535156 C 339.414062 214.535156 340.972656 214.871094 342.410156 215.535156 C 343.851562 216.183594 345.109375 217.085938 346.183594 218.25 C 347.273438 219.429688 348.101562 220.769531 348.667969 222.273438 C 349.285156 223.84375 349.589844 225.476562 349.578125 227.164062 C 349.578125 228.914062 349.273438 230.554688 348.667969 232.078125 C 348.097656 233.578125 347.269531 234.921875 346.183594 236.105469 C 345.105469 237.257812 343.847656 238.164062 342.410156 238.816406 C 340.972656 239.464844 339.410156 239.792969 337.722656 239.792969 C 336.320312 239.796875 334.957031 239.550781 333.640625 239.0625 C 332.335938 238.558594 331.316406 237.914062 330.578125 237.125 L 329.621094 239.214844 L 323.914062 239.214844 L 323.914062 203.90625 L 330.578125 203.90625 L 330.578125 217.160156 C 332.410156 215.414062 334.792969 214.535156 337.722656 214.535156 Z M 336.816406 233.835938 C 337.6875 233.835938 338.5 233.667969 339.257812 233.324219 C 340.011719 232.96875 340.675781 232.496094 341.253906 231.898438 C 341.832031 231.296875 342.28125 230.589844 342.609375 229.789062 C 342.941406 228.945312 343.101562 228.070312 343.097656 227.164062 C 343.097656 226.265625 342.929688 225.402344 342.609375 224.585938 C 342.300781 223.785156 341.847656 223.070312 341.253906 222.453125 C 340.675781 221.855469 340.007812 221.382812 339.257812 221.027344 C 338.480469 220.667969 337.667969 220.488281 336.816406 220.496094 C 335.9375 220.496094 335.128906 220.625 334.371094 220.871094 C 333.621094 221.105469 332.964844 221.488281 332.394531 222.027344 C 331.832031 222.550781 331.386719 223.238281 331.066406 224.097656 C 330.738281 224.957031 330.578125 226.019531 330.578125 227.277344 C 330.578125 228.402344 330.738281 229.382812 331.066406 230.210938 C 331.386719 231.027344 331.832031 231.699219 332.394531 232.234375 C 332.957031 232.757812 333.617188 233.15625 334.371094 233.433594 C 335.164062 233.710938 335.976562 233.84375 336.816406 233.835938 Z M 336.816406 233.835938 " fill-opacity="1" fill-rule="nonzero"/><g clip-path="url(#003c5ca7a7)"><path fill="#000000" d="M 367.625 226.632812 C 369.398438 227.894531 370.289062 229.6875 370.289062 232.011719 C 370.289062 233.078125 370.03125 234.082031 369.535156 235.015625 C 369.023438 235.976562 368.34375 236.800781 367.492188 237.480469 C 366.613281 238.191406 365.59375 238.746094 364.425781 239.148438 C 363.222656 239.558594 361.988281 239.757812 360.71875 239.75 C 359.726562 239.75 358.75 239.617188 357.789062 239.351562 C 356.875 239.109375 356 238.761719 355.171875 238.304688 C 354.394531 237.863281 353.691406 237.324219 353.0625 236.683594 C 352.480469 236.066406 352.035156 235.359375 351.730469 234.570312 C 352.484375 234.210938 353.308594 233.824219 354.195312 233.390625 C 354.992188 233 355.78125 232.597656 356.570312 232.191406 C 356.863281 232.679688 357.316406 233.136719 357.925781 233.546875 C 358.53125 233.945312 359.367188 234.144531 360.433594 234.144531 C 361.527344 234.144531 362.332031 233.890625 362.851562 233.367188 C 363.371094 232.851562 363.628906 232.363281 363.628906 231.898438 C 363.628906 231.589844 363.453125 231.300781 363.097656 231.035156 C 362.726562 230.746094 362.316406 230.523438 361.875 230.367188 C 361.238281 230.101562 360.707031 229.960938 360.277344 229.945312 C 359.785156 229.917969 359.304688 229.832031 358.835938 229.675781 C 357.105469 229.265625 355.777344 228.710938 354.863281 228.011719 C 353.941406 227.316406 353.269531 226.621094 352.839844 225.917969 C 352.425781 225.207031 352.199219 224.535156 352.152344 223.894531 C 352.109375 223.246094 352.085938 222.730469 352.085938 222.339844 C 352.085938 221.304688 352.308594 220.316406 352.753906 219.382812 C 353.210938 218.441406 353.832031 217.628906 354.617188 216.9375 C 355.4375 216.21875 356.355469 215.664062 357.371094 215.269531 C 358.449219 214.847656 359.566406 214.640625 360.722656 214.648438 C 361.726562 214.648438 362.679688 214.796875 363.585938 215.09375 C 364.484375 215.375 365.304688 215.773438 366.050781 216.292969 C 366.789062 216.796875 367.414062 217.402344 367.9375 218.113281 C 368.46875 218.824219 368.867188 219.621094 369.136719 220.496094 L 363.964844 222.230469 C 363.769531 221.652344 363.371094 221.183594 362.765625 220.828125 C 362.183594 220.472656 361.554688 220.292969 360.878906 220.292969 C 360.195312 220.292969 359.640625 220.527344 359.214844 220.984375 C 358.796875 221.429688 358.589844 221.882812 358.589844 222.339844 C 358.589844 222.890625 358.789062 223.316406 359.191406 223.628906 C 359.601562 223.929688 360.042969 224.140625 360.523438 224.273438 C 360.878906 224.335938 361.222656 224.386719 361.566406 224.429688 C 361.90625 224.472656 362.238281 224.535156 362.566406 224.609375 C 363.6875 224.863281 364.65625 225.152344 365.472656 225.476562 C 366.300781 225.804688 367.015625 226.1875 367.625 226.632812 Z M 367.625 226.632812 " fill-opacity="1" fill-rule="nonzero"/></g><path fill="#000000" d="M 132.078125 183.0625 L 148.257812 183.0625 C 161.738281 183.0625 172.765625 172.101562 172.765625 158.515625 C 172.765625 144.933594 161.738281 133.96875 148.257812 133.96875 L 132.078125 133.96875 Z M 142.863281 173.488281 L 142.863281 143.542969 L 148.171875 143.542969 C 155.929688 143.542969 161.980469 150.003906 161.980469 158.515625 C 161.980469 167.023438 155.933594 173.488281 148.171875 173.488281 Z M 142.863281 173.488281 " fill-opacity="1" fill-rule="nonzero"/><path fill="#000000" d="M 184.6875 144.851562 C 187.789062 144.851562 190.40625 142.234375 190.40625 139.125 C 190.40625 135.9375 187.789062 133.394531 184.6875 133.394531 C 181.585938 133.394531 178.972656 135.9375 178.972656 139.125 C 178.972656 142.234375 181.585938 144.851562 184.6875 144.851562 Z M 179.460938 183.0625 L 189.832031 183.0625 L 189.832031 150.332031 L 179.460938 150.332031 Z M 179.460938 183.0625 " fill-opacity="1" fill-rule="nonzero"/><path fill="#000000" d="M 208.949219 183.714844 C 216.300781 183.714844 220.792969 179.214844 220.792969 173.078125 C 220.792969 166.535156 215.402344 163.917969 210.746094 162.117188 C 208.375 161.132812 207.234375 160.644531 207.234375 159.414062 C 207.234375 158.355469 208.050781 157.539062 209.847656 157.539062 C 211.972656 157.539062 213.929688 158.679688 214.914062 159.90625 L 220.144531 154.019531 C 217.6875 151.5625 213.6875 149.683594 209.113281 149.683594 C 201.675781 149.683594 196.9375 154.589844 196.9375 160.15625 C 196.9375 166.695312 203.476562 168.910156 207.234375 170.296875 C 210.175781 171.445312 211.15625 172.261719 211.15625 173.40625 C 211.15625 174.71875 210.015625 175.453125 208.292969 175.453125 C 206.578125 175.453125 204.292969 174.796875 202.820312 172.015625 L 195.144531 175.863281 C 197.105469 180.933594 203.148438 183.71875 208.949219 183.71875 Z M 208.949219 183.714844 " fill-opacity="1" fill-rule="nonzero"/><path fill="#000000" d="M 245.546875 158.4375 L 245.546875 150.332031 L 237.78125 150.332031 L 237.78125 137.734375 L 227.410156 137.734375 L 227.410156 150.332031 L 221.9375 150.332031 L 221.9375 158.4375 L 227.40625 158.4375 L 227.40625 171.359375 C 227.40625 178.316406 233.289062 183.71875 240.234375 183.71875 C 242.4375 183.71875 244.644531 183.222656 245.460938 182.648438 L 245.460938 174.550781 L 241.542969 174.550781 C 239.335938 174.550781 237.78125 172.835938 237.78125 170.132812 L 237.78125 158.4375 Z M 245.546875 158.4375 " fill-opacity="1" fill-rule="nonzero"/><path fill="#000000" d="M 256.082031 144.851562 C 259.183594 144.851562 261.796875 142.234375 261.796875 139.125 C 261.796875 135.9375 259.183594 133.394531 256.082031 133.394531 C 252.980469 133.394531 250.367188 135.9375 250.367188 139.125 C 250.367188 142.234375 252.980469 144.851562 256.082031 144.851562 Z M 250.851562 183.0625 L 261.222656 183.0625 L 261.222656 150.332031 L 250.851562 150.332031 Z M 250.851562 183.0625 " fill-opacity="1" fill-rule="nonzero"/><path fill="#000000" d="M 289.570312 149.683594 C 285.8125 149.683594 282.550781 151.476562 280.257812 154.34375 L 280.257812 150.332031 L 269.800781 150.332031 L 269.800781 183.0625 L 280.257812 183.0625 L 280.257812 164.078125 C 280.257812 161.132812 282.710938 158.925781 285.734375 158.925781 C 288.753906 158.925781 290.882812 161.132812 290.882812 164.078125 L 290.882812 183.0625 L 301.253906 183.0625 L 301.253906 162.359375 C 301.253906 155.164062 296.023438 149.683594 289.570312 149.683594 Z M 289.570312 149.683594 " fill-opacity="1" fill-rule="nonzero"/><path fill="#000000" d="M 324.863281 183.714844 C 334.664062 183.714844 341.363281 177.988281 342.75 169.804688 L 331.96875 169.804688 C 330.90625 172.589844 328.210938 174.390625 324.863281 174.46875 C 320.367188 174.390625 317.101562 171.117188 317.101562 166.695312 C 317.101562 162.277344 320.367188 159.011719 324.863281 158.925781 C 328.210938 159.011719 330.90625 160.804688 331.96875 163.589844 L 342.75 163.589844 C 341.363281 155.40625 334.664062 149.683594 324.863281 149.683594 C 313.914062 149.683594 306.644531 156.882812 306.644531 166.695312 C 306.644531 176.511719 313.914062 183.714844 324.863281 183.714844 Z M 324.863281 183.714844 " fill-opacity="1" fill-rule="nonzero"/><path fill="#000000" d="M 367.832031 158.4375 L 367.832031 150.332031 L 360.066406 150.332031 L 360.066406 137.734375 L 349.695312 137.734375 L 349.695312 150.332031 L 344.222656 150.332031 L 344.222656 158.4375 L 349.691406 158.4375 L 349.691406 171.359375 C 349.691406 178.316406 355.578125 183.71875 362.519531 183.71875 C 364.722656 183.71875 366.929688 183.222656 367.746094 182.648438 L 367.746094 174.550781 L 363.828125 174.550781 C 361.621094 174.550781 360.066406 172.835938 360.066406 170.132812 L 360.066406 158.4375 Z M 367.832031 158.4375 " fill-opacity="1" fill-rule="nonzero"/><g clip-path="url(#09d06343e6)"><path fill="#00a359" d="M 113.105469 132.167969 L 88.609375 132.167969 L 88.609375 156.664062 L 113.105469 156.664062 Z M 113.105469 132.167969 " fill-opacity="1" fill-rule="nonzero"/></g><g clip-path="url(#620c013da0)"><path fill="#00a359" d="M 113.105469 160.25 L 88.609375 160.25 L 88.609375 184.75 L 113.105469 184.75 Z M 113.105469 160.25 " fill-opacity="1" fill-rule="nonzero"/></g><g clip-path="url(#9d6a687402)"><path fill="#00a359" d="M 113.105469 188.332031 L 88.609375 188.332031 L 88.609375 212.832031 L 113.105469 212.832031 Z M 113.105469 188.332031 " fill-opacity="1" fill-rule="nonzero"/></g><g clip-path="url(#89154a4f5f)"><path fill="#00a359" d="M 113.105469 216.417969 L 88.609375 216.417969 L 88.609375 240.917969 L 113.105469 240.917969 Z M 113.105469 216.417969 " fill-opacity="1" fill-rule="nonzero"/></g><path fill="#00b764" d="M 85.023438 160.25 L 60.523438 160.25 L 60.523438 184.75 L 85.023438 184.75 Z M 85.023438 160.25 " fill-opacity="1" fill-rule="nonzero"/><path fill="#00b764" d="M 85.023438 188.332031 L 60.523438 188.332031 L 60.523438 212.832031 L 85.023438 212.832031 Z M 85.023438 188.332031 " fill-opacity="1" fill-rule="nonzero"/><g clip-path="url(#54d676310f)"><path fill="#00b764" d="M 85.023438 216.417969 L 60.523438 216.417969 L 60.523438 240.917969 L 85.023438 240.917969 Z M 85.023438 216.417969 " fill-opacity="1" fill-rule="nonzero"/></g><path fill="#00e17b" d="M 56.9375 188.332031 L 32.441406 188.332031 L 32.441406 212.832031 L 56.9375 212.832031 Z M 56.9375 188.332031 " fill-opacity="1" fill-rule="nonzero"/><g clip-path="url(#6290763eef)"><path fill="#00e17b" d="M 56.9375 216.417969 L 32.441406 216.417969 L 32.441406 240.917969 L 56.9375 240.917969 Z M 56.9375 216.417969 " fill-opacity="1" fill-rule="nonzero"/></g><g clip-path="url(#87768a436e)"><path fill="#00ff8b" d="M 28.855469 216.417969 L 4.355469 216.417969 L 4.355469 240.917969 L 28.855469 240.917969 Z M 28.855469 216.417969 " fill-opacity="1" fill-rule="nonzero"/></g></svg>