<svg width="40" height="40" viewBox="0 0 40 40" fill="none" xmlns="http://www.w3.org/2000/svg">
<g id="social-facebook-svgrepo-com 1" clip-path="url(#clip0_3019_5074)">
<path id="Vector" d="M10.6667 8H29.3333C30.0406 8 30.7189 8.28095 31.219 8.78105C31.719 9.28115 32 9.95942 32 10.6667V29.3333C32 30.0406 31.719 30.7189 31.219 31.219C30.7189 31.719 30.0406 32 29.3333 32H10.6667C9.95942 32 9.28115 31.719 8.78105 31.219C8.28095 30.7189 8 30.0406 8 29.3333V10.6667C8 9.95942 8.28095 9.28115 8.78105 8.78105C9.28115 8.28095 9.95942 8 10.6667 8ZM28 10.6667H24.6667C23.429 10.6667 22.242 11.1583 21.3668 12.0335C20.4917 12.9087 20 14.0957 20 15.3333V18.6667H17.3333V22.6667H20V32H24V22.6667H28V18.6667H24V16C24 15.6464 24.1405 15.3072 24.3905 15.0572C24.6406 14.8071 24.9797 14.6667 25.3333 14.6667H28V10.6667Z" fill="#00C7C7"/>
</g>
<defs>
<clipPath id="clip0_3019_5074">
<rect width="40" height="40" fill="white"/>
</clipPath>
</defs>
</svg>
