<svg width="40" height="40" viewBox="0 0 40 40" fill="none" xmlns="http://www.w3.org/2000/svg">
<g id="social-facebook-svgrepo-com 2">
<path id="Instagram" fill-rule="evenodd" clip-rule="evenodd" d="M8 20C8 15.2065 8 12.8097 9.14226 11.0834C9.65233 10.3125 10.3125 9.65233 11.0834 9.14226C12.8097 8 15.2065 8 20 8C24.7935 8 27.1903 8 28.9166 9.14226C29.6875 9.65233 30.3477 10.3125 30.8577 11.0834C32 12.8097 32 15.2065 32 20C32 24.7935 32 27.1903 30.8577 28.9166C30.3477 29.6875 29.6875 30.3477 28.9166 30.8577C27.1903 32 24.7935 32 20 32C15.2065 32 12.8097 32 11.0834 30.8577C10.3125 30.3477 9.65233 29.6875 9.14226 28.9166C8 27.1903 8 24.7935 8 20ZM26.2124 20.0007C26.2124 23.4318 23.4309 26.2133 19.9998 26.2133C16.5687 26.2133 13.7873 23.4318 13.7873 20.0007C13.7873 16.5696 16.5687 13.7882 19.9998 13.7882C23.4309 13.7882 26.2124 16.5696 26.2124 20.0007ZM19.9998 24.1114C22.2701 24.1114 24.1105 22.271 24.1105 20.0007C24.1105 17.7305 22.2701 15.89 19.9998 15.89C17.7296 15.89 15.8892 17.7305 15.8892 20.0007C15.8892 22.271 17.7296 24.1114 19.9998 24.1114ZM26.4577 14.9355C27.2639 14.9355 27.9174 14.2819 27.9174 13.4757C27.9174 12.6695 27.2639 12.016 26.4577 12.016C25.6514 12.016 24.9979 12.6695 24.9979 13.4757C24.9979 14.2819 25.6514 14.9355 26.4577 14.9355Z" fill="#00C7C7"/>
</g>
</svg>
