<svg width="40" height="40" viewBox="0 0 40 40" fill="none" xmlns="http://www.w3.org/2000/svg">
<g id="social-linkedin-svgrepo-com 1" clip-path="url(#clip0_3019_5071)">
<path id="Vector" d="M29.3333 8C30.0406 8 30.7189 8.28095 31.219 8.78105C31.719 9.28115 32 9.95942 32 10.6667V29.3333C32 30.0406 31.719 30.7189 31.219 31.219C30.7189 31.719 30.0406 32 29.3333 32H10.6667C9.95942 32 9.28115 31.719 8.78105 31.219C8.28095 30.7189 8 30.0406 8 29.3333V10.6667C8 9.95942 8.28095 9.28115 8.78105 8.78105C9.28115 8.28095 9.95942 8 10.6667 8H29.3333ZM28.6667 28.6667V21.6C28.6667 20.4472 28.2087 19.3416 27.3936 18.5264C26.5784 17.7113 25.4728 17.2533 24.32 17.2533C23.7035 17.2746 23.1011 17.443 22.5629 17.7445C22.0248 18.0461 21.5666 18.472 21.2267 18.9867V17.5067H17.5067V28.6667H21.2267V22.0933C21.2048 21.8358 21.2367 21.5766 21.3203 21.3321C21.4039 21.0875 21.5373 20.863 21.7121 20.6727C21.887 20.4824 22.0994 20.3305 22.336 20.2266C22.5726 20.1227 22.8282 20.069 23.0867 20.069C23.3451 20.069 23.6007 20.1227 23.8373 20.2266C24.0739 20.3305 24.2864 20.4824 24.4612 20.6727C24.636 20.863 24.7695 21.0875 24.853 21.3321C24.9366 21.5766 24.9685 21.8358 24.9467 22.0933V28.6667H28.6667ZM13.1733 15.4133C13.7674 15.4133 14.3372 15.1773 14.7573 14.7573C15.1773 14.3372 15.4133 13.7674 15.4133 13.1733C15.4372 12.8637 15.3968 12.5526 15.2947 12.2593C15.1927 11.9661 15.0311 11.6971 14.8201 11.4692C14.6092 11.2414 14.3534 11.0596 14.0689 10.9353C13.7843 10.811 13.4772 10.7468 13.1667 10.7468C12.8562 10.7468 12.549 10.811 12.2645 10.9353C11.9799 11.0596 11.7242 11.2414 11.5132 11.4692C11.3023 11.6971 11.1407 11.9661 11.0386 12.2593C10.9365 12.5526 10.8961 12.8637 10.92 13.1733C10.9235 13.7686 11.1625 14.3384 11.5847 14.7581C12.0069 15.1778 12.578 15.4133 13.1733 15.4133ZM15.0267 28.6667V17.5067H11.3333V28.6667H15.0267Z" fill="#00C7C7"/>
</g>
<defs>
<clipPath id="clip0_3019_5071">
<rect width="40" height="40" fill="white"/>
</clipPath>
</defs>
</svg>
