<svg width="24" height="24" viewBox="0 0 24 24" fill="none" xmlns="http://www.w3.org/2000/svg">
<g id="maps-location">
<path id="primary" d="M21.9999 19.6699L20.3299 9.66993C20.2532 9.19668 20.0091 8.76672 19.642 8.45836C19.2749 8.15 18.8093 7.98376 18.3299 7.98993H5.66991C5.192 7.98339 4.72754 8.14822 4.36065 8.45456C3.99377 8.76091 3.74873 9.18851 3.66991 9.65993L1.99991 19.6799C1.95319 19.9681 1.9701 20.2629 2.04946 20.5439C2.12882 20.8248 2.26871 21.0849 2.4593 21.306C2.6499 21.5271 2.88658 21.7038 3.15272 21.8236C3.41887 21.9435 3.70804 22.0037 3.99991 21.9999H19.9999C20.2928 22.004 20.583 21.9436 20.8499 21.8231C21.1169 21.7027 21.3542 21.525 21.545 21.3028C21.7357 21.0805 21.8754 20.8191 21.954 20.5369C22.0326 20.2548 22.0483 19.9588 21.9999 19.6699Z" fill="white" stroke="#99ABC4" stroke-width="2"/>
<path id="secondary" d="M12 2C10.6739 2 9.40215 2.52678 8.46447 3.46447C7.52678 4.40215 7 5.67392 7 7C7 11.36 11.12 15.53 11.29 15.71C11.383 15.8037 11.4936 15.8781 11.6154 15.9289C11.7373 15.9797 11.868 16.0058 12 16.0058C12.132 16.0058 12.2627 15.9797 12.3846 15.9289C12.5064 15.8781 12.617 15.8037 12.71 15.71C12.88 15.53 17 11.36 17 7C17 5.67392 16.4732 4.40215 15.5355 3.46447C14.5979 2.52678 13.3261 2 12 2Z" fill="white" stroke="#99ABC4" stroke-width="2"/>
</g>
</svg>
