<svg width="20" height="20" viewBox="0 0 20 20" fill="none" xmlns="http://www.w3.org/2000/svg">
<g id="month">
<path id="Union" fill-rule="evenodd" clip-rule="evenodd" d="M6.58333 2.5C6.58333 2.08579 6.24755 1.75 5.83333 1.75C5.41912 1.75 5.08333 2.08579 5.08333 2.5V2.58333H3.33333C2.91341 2.58333 2.51068 2.75015 2.21375 3.04708C1.91681 3.34401 1.75 3.74674 1.75 4.16667V16.6668C1.75 17.0868 1.91681 17.4895 2.21375 17.7864C2.51068 18.0834 2.91341 18.2502 3.33333 18.2502H12.5C12.6989 18.2502 12.8897 18.1711 13.0303 18.0305L18.0303 13.0305C18.171 12.8898 18.25 12.6991 18.25 12.5002V4.16683C18.25 4.16678 18.25 4.16688 18.25 4.16683C18.25 4.12106 18.248 4.07533 18.2441 4.03009C18.2121 3.66021 18.0508 3.31165 17.7863 3.04708C17.4893 2.75015 17.0866 2.58333 16.6667 2.58333H14.9167V2.5C14.9167 2.08579 14.5809 1.75 14.1667 1.75C13.7525 1.75 13.4167 2.08579 13.4167 2.5V2.58333H10.75V2.5C10.75 2.08579 10.4142 1.75 10 1.75C9.58579 1.75 9.25 2.08579 9.25 2.5V2.58333H6.58333V2.5ZM16.75 6.75V4.16683C16.75 4.14473 16.7412 4.12353 16.7256 4.1079C16.71 4.09228 16.6888 4.0835 16.6667 4.0835H14.9167V4.16667C14.9167 4.58088 14.5809 4.91667 14.1667 4.91667C13.7525 4.91667 13.4167 4.58088 13.4167 4.16667V4.0835H10.75V4.16667C10.75 4.58088 10.4142 4.91667 10 4.91667C9.58579 4.91667 9.25 4.58088 9.25 4.16667V4.0835H6.58333V4.16667C6.58333 4.58088 6.24755 4.91667 5.83333 4.91667C5.41912 4.91667 5.08333 4.58088 5.08333 4.16667V4.0835H3.33333C3.31123 4.0835 3.29004 4.09228 3.27441 4.1079C3.25878 4.12353 3.25 4.14473 3.25 4.16683V6.75H16.75ZM3.25 8.25H16.75V11.7502H12.5C12.0858 11.7502 11.75 12.0859 11.75 12.5002V16.7502H3.33333C3.31123 16.7502 3.29003 16.7414 3.27441 16.7258C3.25878 16.7101 3.25 16.6889 3.25 16.6668V8.25ZM13.25 13.2502H15.6893L13.25 15.6895V13.2502Z" fill="white"/>
</g>
</svg>
