<svg width="24" height="24" viewBox="0 0 24 24" fill="none" xmlns="http://www.w3.org/2000/svg">
<g id="phone">
<path id="primary" d="M20.9998 15V18.93C21.0029 19.219 20.9433 19.5051 20.8251 19.7688C20.707 20.0325 20.5331 20.2675 20.3155 20.4576C20.0979 20.6476 19.8417 20.7883 19.5645 20.8699C19.2873 20.9514 18.9957 20.9719 18.7098 20.93C14.7468 20.4209 11.0657 18.6077 8.24676 15.7761C5.42779 12.9444 3.6311 9.25532 3.13979 5.29003C3.09802 5.00498 3.11831 4.71427 3.1993 4.43779C3.28028 4.16131 3.42004 3.90559 3.60902 3.68813C3.79799 3.47067 4.03171 3.29661 4.29419 3.17784C4.55667 3.05908 4.8417 2.99843 5.12979 3.00003H8.99979C9.24701 2.99853 9.48602 3.08866 9.67069 3.25302C9.85536 3.41737 9.9726 3.64431 9.99979 3.89003C10.099 5.20061 10.438 6.48183 10.9998 7.67003C11.0961 7.89506 11.1066 8.14761 11.0292 8.37983C10.9518 8.61205 10.7919 8.80781 10.5798 8.93003L9.71979 9.42003C9.59583 9.48821 9.48775 9.58191 9.40268 9.69495C9.31761 9.80799 9.2575 9.93779 9.22631 10.0758C9.19512 10.2138 9.19357 10.3568 9.22175 10.4955C9.24993 10.6341 9.30721 10.7652 9.38979 10.88C10.3791 12.3292 11.6306 13.5807 13.0798 14.57C13.1947 14.6526 13.3257 14.7099 13.4644 14.7381C13.603 14.7663 13.746 14.7647 13.884 14.7335C14.022 14.7023 14.1518 14.6422 14.2649 14.5571C14.3779 14.4721 14.4716 14.364 14.5398 14.24L15.0298 13.38C15.1593 13.1652 15.3649 13.0068 15.6057 12.9364C15.8465 12.8661 16.1049 12.8888 16.3298 13C17.518 13.5618 18.7992 13.9008 20.1098 14C20.3555 14.0272 20.5825 14.1445 20.7468 14.3291C20.9112 14.5138 21.0013 14.7528 20.9998 15Z" stroke="#99ABC4" stroke-width="2" stroke-linecap="round" stroke-linejoin="round"/>
</g>
</svg>
