<svg width="40" height="40" viewBox="0 0 40 40" fill="none" xmlns="http://www.w3.org/2000/svg">
<g id="social-facebook-svgrepo-com 3">
<g id="Group 73">
<path id="YouTube" d="M20.5555 30.9677L14.4871 30.8484C12.5223 30.8068 10.5526 30.8898 8.62628 30.4591C5.69595 29.8155 5.48835 26.66 5.27113 24.0131C4.97181 20.2918 5.08769 16.5031 5.65253 12.8129C5.97141 10.7423 7.22631 9.50681 9.16697 9.37237C15.7181 8.88443 22.3129 8.94226 28.8495 9.1699C29.5398 9.19076 30.2349 9.30482 30.9157 9.43465C34.2758 10.0679 34.3578 13.6438 34.5756 16.6541C34.7928 19.6954 34.7011 22.7524 34.2859 25.773C33.9528 28.274 33.3155 30.3713 30.626 30.5738C27.2562 30.8385 23.9637 31.0517 20.5844 30.9838C20.5845 30.9677 20.5651 30.9677 20.5555 30.9677ZM16.9878 24.6359C19.5273 23.0684 22.0183 21.527 24.5432 19.97C21.999 18.4025 19.5128 16.8612 16.9878 15.3042V24.6359Z" fill="#00C7C7"/>
</g>
</g>
</svg>
